<?xml version="1.0" encoding="UTF-8"?>
<svg version="1.1" xmlns="http://www.w3.org/2000/svg" width="498" height="33">
<path d="M0 0 C10.56 0 21.12 0 32 0 C32 2.31 32 4.62 32 7 C31 8 31 8 29.05053711 8.11352539 C28.2178833 8.10828857 27.38522949 8.10305176 26.52734375 8.09765625 C25.62822266 8.09443359 24.72910156 8.09121094 23.80273438 8.08789062 C22.85720703 8.07951172 21.91167969 8.07113281 20.9375 8.0625 C19.98810547 8.05798828 19.03871094 8.05347656 18.06054688 8.04882812 C15.70696935 8.0370011 13.35351523 8.02052025 11 8 C11 8.99 11 9.98 11 11 C17.27 11 23.54 11 30 11 C30 13.64 30 16.28 30 19 C23.73 19 17.46 19 11 19 C11 19.99 11 20.98 11 22 C17.93 22 24.86 22 32 22 C32.495 23.98 32.495 23.98 33 26 C36.63 17.42 40.26 8.84 44 0 C48.62 0 53.24 0 58 0 C59.71234805 3.94961231 61.42246252 7.9000392 63.12695312 11.85302734 C63.70768151 13.19799169 64.28970745 14.54239653 64.87304688 15.88623047 C65.71043745 17.81593154 66.54316833 19.74758484 67.375 21.6796875 C67.87773437 22.84226074 68.38046875 24.00483398 68.8984375 25.20263672 C70 28 70 28 70 30 C65.71 30 61.42 30 57 30 C56.67 28.35 56.34 26.7 56 25 C52.7 25 49.4 25 46 25 C45.505 27.475 45.505 27.475 45 30 C30.15 30 15.3 30 0 30 C0 20.1 0 10.2 0 0 Z M51 12 C50.34 13.98 49.68 15.96 49 18 C50.65 18 52.3 18 54 18 C53.34 16.02 52.68 14.04 52 12 C51.67 12 51.34 12 51 12 Z " fill="#FEFEFD" transform="translate(283,2)"/>
<path d="M0 0 C4.22938829 2.55393468 6.80660552 5.60731656 8.375 10.3125 C8.95726942 16.25164805 7.78688982 20.49817693 4.375 25.3125 C-2.6411322 31.01310741 -9.84743276 31.06755955 -18.625 30.3125 C-24.05170136 28.74497559 -27.50089949 26.06113277 -30.625 21.3125 C-32.482304 17.597892 -32.06782906 13.36656882 -31.625 9.3125 C-29.26827908 4.41777193 -26.29687656 1.99634398 -21.625 -0.6875 C-15.03262199 -2.88495934 -6.36186979 -2.98250228 0 0 Z M-18.125 7.875 C-20.17902253 11.21278661 -20.03814312 13.45649755 -19.625 17.3125 C-18.60763229 20.07392665 -18.26329259 20.99335371 -15.625 22.3125 C-12.69078994 22.59645581 -10.47401166 22.80798029 -7.625 22.3125 C-4.62506885 19.76255852 -3.77019541 18.18367244 -3.125 14.3125 C-3.77019541 10.44132756 -4.62506885 8.86244148 -7.625 6.3125 C-11.65153083 5.36362491 -14.61791748 5.68307342 -18.125 7.875 Z " fill="#FFFFFF" transform="translate(151.625,2.6875)"/>
<path d="M0 0 C3.55802915 2.24024057 5.60504633 4.46208534 7.3125 8.375 C7.94295012 13.30265615 8.02324476 17.70474982 6.0625 22.3125 C5.19625 23.3334375 5.19625 23.3334375 4.3125 24.375 C3.714375 25.096875 3.11625 25.81875 2.5 26.5625 C-3.48754374 31.52360767 -11.33879088 30.96216278 -18.6875 30.375 C-23.86329366 29.21067383 -27.23350621 26.33693406 -30.6875 22.375 C-32.78302467 18.18395066 -32.09970622 12.93913839 -31.6875 8.375 C-29.68447876 3.70128378 -26.86920452 1.11373485 -22.29296875 -0.9296875 C-15.25366254 -2.80824298 -6.74123462 -3.0101573 0 0 Z M-18.6875 8.0625 C-19.81508417 10.67003839 -20.55151974 12.51941458 -20.6875 15.375 C-19.10792918 19.67299298 -19.10792918 19.67299298 -15.6875 22.375 C-10.48873286 22.87244329 -10.48873286 22.87244329 -5.75 21.25 C-4.2380924 18.58192777 -3.87098688 16.43311465 -3.6875 13.375 C-4.61332657 10.24143316 -5.37218695 8.69031305 -7.6875 6.375 C-11.69972216 5.72025407 -15.49787956 5.37125775 -18.6875 8.0625 Z " fill="#FAAB2C" transform="translate(453.6875,2.625)"/>
<path d="M0 0 C4.516875 -0.0825 9.03375 -0.165 13.6875 -0.25 C15.10377686 -0.28641602 16.52005371 -0.32283203 17.97924805 -0.36035156 C19.10371338 -0.3703418 20.22817871 -0.38033203 21.38671875 -0.390625 C22.53358154 -0.41157227 23.68044434 -0.43251953 24.86206055 -0.45410156 C28.66699381 0.09652287 30.2911662 1.32609298 33 4 C34.16127669 6.99149156 34.30618388 9.8134196 34 13 C32.1875 16.0625 32.1875 16.0625 30 18 C29.34 18 28.68 18 28 18 C28.433125 18.69867187 28.86625 19.39734375 29.3125 20.1171875 C29.869375 21.02726562 30.42625 21.93734375 31 22.875 C31.556875 23.77992187 32.11375 24.68484375 32.6875 25.6171875 C34 28 34 28 34 30 C29.87708231 30.54038242 26.09856278 30.79767163 22 30 C19.84507624 27.83217251 18.68441085 25.81959912 17.37890625 23.06640625 C16.14051521 20.73268827 16.14051521 20.73268827 13.33984375 20.21484375 C12.56769531 20.14394531 11.79554688 20.07304687 11 20 C11 23.3 11 26.6 11 30 C7.37 30 3.74 30 0 30 C0 20.1 0 10.2 0 0 Z M11 8 C11 9.32 11 10.64 11 12 C14.3 12 17.6 12 21 12 C21.33 10.68 21.66 9.36 22 8 C18.37 8 14.74 8 11 8 Z " fill="#FAAA2A" transform="translate(464,2)"/>
<path d="M0 0 C5.754375 -0.0928125 5.754375 -0.0928125 11.625 -0.1875 C13.42251709 -0.22846802 13.42251709 -0.22846802 15.25634766 -0.27026367 C20.88772647 -0.31423666 25.20662686 -0.3324604 30 3 C34.66930023 8.17408944 35.35792578 11.39385607 35.27734375 18.234375 C34.88598046 22.13698363 33.68620197 24.17241898 31 27 C25.18112032 31.08291391 18.9245164 30.33600123 12.125 30.1875 C8.12375 30.125625 4.1225 30.06375 0 30 C0 20.1 0 10.2 0 0 Z M12 8 C12 12.62 12 17.24 12 22 C13.8871875 22.061875 13.8871875 22.061875 15.8125 22.125 C16.52019531 22.14820313 17.22789062 22.17140625 17.95703125 22.1953125 C20.31359719 22.13254462 20.31359719 22.13254462 23 20 C24.17761741 16.67583445 24.17761741 16.67583445 24 13 C22.14658666 9.89649551 22.14658666 9.89649551 19 8 C16.69 8 14.38 8 12 8 Z " fill="#FFFFFF" transform="translate(183,2)"/>
<path d="M0 0 C3.96 0 7.92 0 12 0 C12.04898437 1.42054688 12.09796875 2.84109375 12.1484375 4.3046875 C12.22345936 6.16147856 12.29900744 8.01824841 12.375 9.875 C12.4059375 10.81214844 12.436875 11.74929688 12.46875 12.71484375 C12.50742188 13.61074219 12.54609375 14.50664062 12.5859375 15.4296875 C12.6173584 16.25710449 12.6487793 17.08452148 12.68115234 17.93701172 C12.82599137 20.21986085 12.82599137 20.21986085 15 22 C18.58343976 22.16677282 18.58343976 22.16677282 22 22 C23.61635488 19.13026116 24.2733418 16.95535797 24.4140625 13.671875 C24.45273437 12.87265625 24.49140625 12.0734375 24.53125 11.25 C24.5621875 10.425 24.593125 9.6 24.625 8.75 C24.66367187 7.90953125 24.70234375 7.0690625 24.7421875 6.203125 C24.83615836 4.13576618 24.91915564 2.06791373 25 0 C28.63 0 32.26 0 36 0 C36.08101311 3.72960366 36.14051069 7.45744359 36.1875 11.1875 C36.21263672 12.24259766 36.23777344 13.29769531 36.26367188 14.38476562 C36.27333984 15.40634766 36.28300781 16.42792969 36.29296875 17.48046875 C36.3086792 18.41785889 36.32438965 19.35524902 36.34057617 20.32104492 C35.92990944 23.55132884 34.90852565 25.38194126 33 28 C26.42785939 32.33163813 18.60303109 31.61963029 11 31 C7.27205855 30.17023239 4.81836201 28.84564074 2.125 26.0625 C0.17837238 22.4936827 -0.12346089 19.25989959 -0.09765625 15.234375 C-0.09443359 14.34492188 -0.09121094 13.45546875 -0.08789062 12.5390625 C-0.07532227 11.15847656 -0.07532227 11.15847656 -0.0625 9.75 C-0.05798828 8.81414063 -0.05347656 7.87828125 -0.04882812 6.9140625 C-0.03706938 4.60934753 -0.01913468 2.30466554 0 0 Z " fill="#FFFFFF" transform="translate(0,2)"/>
<path d="M0 0 C2.5625 2.5 2.5625 2.5 4 5 C4 5.99 4 6.98 4 8 C-6.79499067 9.56914926 -6.79499067 9.56914926 -12 6 C-15.70028236 6.21766367 -17.35491041 6.35491041 -20 9 C-21.0105533 12.49806911 -21.23456459 14.37909373 -19.9375 17.8125 C-18.12362206 20.21977865 -18.12362206 20.21977865 -15.125 21 C-11.46576248 21 -9.90239599 20.15606559 -7 18 C-6.67 17.67 -6.34 17.34 -6 17 C-4.14227838 17.08984301 -2.28752015 17.24611861 -0.4375 17.4375 C0.57441406 17.53933594 1.58632813 17.64117188 2.62890625 17.74609375 C3.80259766 17.87177734 3.80259766 17.87177734 5 18 C3.33399778 22.64767908 1.22461902 25.41253846 -3 28 C-10.45672639 30.78047425 -17.87589493 30.45107401 -25.375 27.8125 C-29.34503398 25.07128606 -32.25292033 22.51623767 -33.63671875 17.85546875 C-34.48650371 12.49177226 -33.8335621 8.75307192 -31 4 C-22.6792439 -4.50986419 -10.39899484 -5.26189139 0 0 Z " fill="#FAAD31" transform="translate(385,3)"/>
<path d="M0 0 C4.351875 -0.0825 8.70375 -0.165 13.1875 -0.25 C14.55156982 -0.28641602 15.91563965 -0.32283203 17.32104492 -0.36035156 C18.40490479 -0.3703418 19.48876465 -0.38033203 20.60546875 -0.390625 C22.26292114 -0.4220459 22.26292114 -0.4220459 23.95385742 -0.45410156 C27.69280284 0.1032791 29.31666801 1.3939058 32 4 C33.57455739 7.14911479 33.34799118 9.52008816 33 13 C29.51907049 18.46906274 29.51907049 18.46906274 26.08886719 19.66796875 C23.94743345 20.03443884 21.85552107 20.23937759 19.6875 20.375 C18.57665039 20.47748047 18.57665039 20.47748047 17.44335938 20.58203125 C15.63094313 20.74573336 13.81558231 20.87625878 12 21 C12 23.97 12 26.94 12 30 C8.04 30 4.08 30 0 30 C0 20.1 0 10.2 0 0 Z M11 8 C11 9.32 11 10.64 11 12 C13.97 12 16.94 12 20 12 C20.33 10.68 20.66 9.36 21 8 C17.7 8 14.4 8 11 8 Z " fill="#FFFFFF" transform="translate(40,2)"/>
<path d="M0 0 C1.79244141 0.01740234 1.79244141 0.01740234 3.62109375 0.03515625 C5.41740234 0.04869141 5.41740234 0.04869141 7.25 0.0625 C8.17683594 0.07410156 9.10367188 0.08570312 10.05859375 0.09765625 C11.68546893 3.65930283 13.30976228 7.22212107 14.93359375 10.78515625 C15.39378906 11.79255859 15.85398438 12.79996094 16.328125 13.83789062 C16.77285156 14.81435547 17.21757812 15.79082031 17.67578125 16.796875 C18.08425293 17.69237061 18.49272461 18.58786621 18.91357422 19.51049805 C22.05859375 26.6166328 22.05859375 26.6166328 22.05859375 30.09765625 C18.09859375 30.09765625 14.13859375 30.09765625 10.05859375 30.09765625 C9.56359375 27.62265625 9.56359375 27.62265625 9.05859375 25.09765625 C5.42859375 25.09765625 1.79859375 25.09765625 -1.94140625 25.09765625 C-2.27140625 26.74765625 -2.60140625 28.39765625 -2.94140625 30.09765625 C-6.90140625 30.09765625 -10.86140625 30.09765625 -14.94140625 30.09765625 C-14.37228953 25.89926058 -13.39592331 22.38955806 -11.69140625 18.515625 C-11.24796875 17.50177734 -10.80453125 16.48792969 -10.34765625 15.44335938 C-9.6515625 13.88004883 -9.6515625 13.88004883 -8.94140625 12.28515625 C-8.47734375 11.22361328 -8.01328125 10.16207031 -7.53515625 9.06835938 C-3.59600628 0.11938932 -3.59600628 0.11938932 0 0 Z M3.05859375 11.09765625 C2.39859375 13.40765625 1.73859375 15.71765625 1.05859375 18.09765625 C2.70859375 18.09765625 4.35859375 18.09765625 6.05859375 18.09765625 C5.39859375 15.78765625 4.73859375 13.47765625 4.05859375 11.09765625 C3.72859375 11.09765625 3.39859375 11.09765625 3.05859375 11.09765625 Z " fill="#FFFFFF" transform="translate(231.94140625,1.90234375)"/>
<path d="M0 0 C4.62 0 9.24 0 14 0 C15.71234805 3.94961231 17.42246252 7.9000392 19.12695312 11.85302734 C19.70768151 13.19799169 20.28970745 14.54239653 20.87304688 15.88623047 C21.71043745 17.81593154 22.54316833 19.74758484 23.375 21.6796875 C23.87773437 22.84226074 24.38046875 24.00483398 24.8984375 25.20263672 C26 28 26 28 26 30 C21.71 30 17.42 30 13 30 C12.505 27.525 12.505 27.525 12 25 C8.7 25 5.4 25 2 25 C1.67 26.32 1.34 27.64 1 29 C-2.96 29 -6.92 29 -11 29 C-10.19556303 24.97781514 -9.28530298 21.9791349 -7.71484375 18.26171875 C-7.04291992 16.66166992 -7.04291992 16.66166992 -6.35742188 15.02929688 C-5.88884766 13.92650391 -5.42027344 12.82371094 -4.9375 11.6875 C-4.46505859 10.56537109 -3.99261719 9.44324219 -3.50585938 8.28710938 C-2.34139806 5.52298403 -1.17124875 2.76125613 0 0 Z M7 12 C6.34 13.98 5.68 15.96 5 18 C6.65 18 8.3 18 10 18 C9.34 16.02 8.68 14.04 8 12 C7.67 12 7.34 12 7 12 Z " fill="#FAAA2A" transform="translate(327,2)"/>
<path d="M0 0 C10.89 0 21.78 0 33 0 C33 2.64 33 5.28 33 8 C29.37 8 25.74 8 22 8 C22 15.26 22 22.52 22 30 C18.37 30 14.74 30 11 30 C11 22.74 11 15.48 11 8 C7.37 8 3.74 8 0 8 C0 5.36 0 2.72 0 0 Z " fill="#FFFFFF" transform="translate(249,2)"/>
<path d="M0 0 C10.89 0 21.78 0 33 0 C33 2.64 33 5.28 33 8 C29.37 8 25.74 8 22 8 C22 15.26 22 22.52 22 30 C18.37 30 14.74 30 11 30 C11 22.74 11 15.48 11 8 C7.37 8 3.74 8 0 8 C0 5.36 0 2.72 0 0 Z " fill="#FFFFFF" transform="translate(88,2)"/>
<path d="M0 0 C10.56 0 21.12 0 32 0 C32 2.64 32 5.28 32 8 C28.37 8 24.74 8 21 8 C21 15.26 21 22.52 21 30 C17.37 30 13.74 30 10 30 C10 22.74 10 15.48 10 8 C6.7 8 3.4 8 0 8 C0 5.36 0 2.72 0 0 Z " fill="#FAAC2F" transform="translate(390,2)"/>
<path d="M0 0 C5.61 0 11.22 0 17 0 C17 2.97 17 5.94 17 9 C11.39 9 5.78 9 0 9 C0 6.03 0 3.06 0 0 Z " fill="#FFFFFF" transform="translate(74,13)"/>
<path d="M0 0 C5.28 0 10.56 0 16 0 C16 2.97 16 5.94 16 9 C10.72 9 5.44 9 0 9 C0 6.03 0 3.06 0 0 Z " fill="#FFFFFF" transform="translate(163,13)"/>
<path d="M0 0 C0.66 0 1.32 0 2 0 C2.33 1.32 2.66 2.64 3 4 C-0.96 4 -4.92 4 -9 4 C-9 3.34 -9 2.68 -9 2 C-6.03 2 -3.06 2 0 2 C0 1.34 0 0.68 0 0 Z " fill="#FBBC58" transform="translate(495,28)"/>
<path d="M0 0 C0.66 0.33 1.32 0.66 2 1 C0.35 2.98 -1.3 4.96 -3 7 C-3.33 5.68 -3.66 4.36 -4 3 C-2.68 2.01 -1.36 1.02 0 0 Z " fill="#FAB23E" transform="translate(429,3)"/>
</svg>
